<mxfile host="app.diagrams.net" modified="2024-07-22T03:36:17.981Z" agent="Mozilla/5.0 (Windows NT 10.0; Win64; x64) AppleWebKit/537.36 (KHTML, like Gecko) Chrome/126.0.0.0 Safari/537.36" etag="Jk3SNiJW1a5IYb5ZWWlT" version="24.7.1" type="device">
  <diagram name="Page-1" id="09pP3GR018C2WlCW-w7y">
    <mxGraphModel dx="1050" dy="583" grid="1" gridSize="10" guides="1" tooltips="1" connect="1" arrows="1" fold="1" page="1" pageScale="1" pageWidth="850" pageHeight="1100" math="0" shadow="0">
      <root>
        <mxCell id="0" />
        <mxCell id="1" parent="0" />
        <mxCell id="h27_iLmKPIAgeTSZqXEj-1" value="" style="html=1;verticalLabelPosition=bottom;align=center;labelBackgroundColor=#ffffff;verticalAlign=top;strokeWidth=2;strokeColor=#0080F0;shadow=0;dashed=0;shape=mxgraph.ios7.icons.smartphone;" vertex="1" parent="1">
          <mxGeometry x="30" y="90" width="120" height="230" as="geometry" />
        </mxCell>
        <mxCell id="h27_iLmKPIAgeTSZqXEj-2" value="" style="html=1;verticalLabelPosition=bottom;align=center;labelBackgroundColor=#ffffff;verticalAlign=top;strokeWidth=2;strokeColor=#F01AA2;shadow=0;dashed=0;shape=mxgraph.ios7.icons.smartphone;" vertex="1" parent="1">
          <mxGeometry x="610" y="110" width="50" height="80" as="geometry" />
        </mxCell>
        <mxCell id="h27_iLmKPIAgeTSZqXEj-3" value="" style="rounded=1;whiteSpace=wrap;html=1;fillColor=#d5e8d4;gradientColor=#97d077;strokeColor=#82b366;" vertex="1" parent="1">
          <mxGeometry x="250" y="90" width="270" height="240" as="geometry" />
        </mxCell>
        <mxCell id="h27_iLmKPIAgeTSZqXEj-4" value="" style="dashed=0;outlineConnect=0;html=1;align=center;labelPosition=center;verticalLabelPosition=bottom;verticalAlign=top;shape=mxgraph.webicons.whatsapp;fillColor=#4FE238;gradientColor=#138709" vertex="1" parent="1">
          <mxGeometry x="360" y="40" width="50" height="50" as="geometry" />
        </mxCell>
        <mxCell id="h27_iLmKPIAgeTSZqXEj-13" value="" style="sketch=0;outlineConnect=0;fontColor=#232F3E;gradientColor=none;fillColor=#E7157B;strokeColor=none;dashed=0;verticalLabelPosition=bottom;verticalAlign=top;align=center;html=1;fontSize=12;fontStyle=0;aspect=fixed;pointerEvents=1;shape=mxgraph.aws4.queue;" vertex="1" parent="1">
          <mxGeometry x="340" y="120" width="78" height="47" as="geometry" />
        </mxCell>
        <mxCell id="h27_iLmKPIAgeTSZqXEj-15" style="edgeStyle=orthogonalEdgeStyle;rounded=0;orthogonalLoop=1;jettySize=auto;html=1;exitX=1.02;exitY=0.237;exitDx=0;exitDy=0;exitPerimeter=0;" edge="1" parent="1" source="h27_iLmKPIAgeTSZqXEj-1" target="h27_iLmKPIAgeTSZqXEj-13">
          <mxGeometry relative="1" as="geometry" />
        </mxCell>
        <mxCell id="h27_iLmKPIAgeTSZqXEj-16" style="edgeStyle=orthogonalEdgeStyle;rounded=0;orthogonalLoop=1;jettySize=auto;html=1;exitX=-0.013;exitY=0.386;exitDx=0;exitDy=0;exitPerimeter=0;flowAnimation=1;" edge="1" parent="1" source="h27_iLmKPIAgeTSZqXEj-2" target="h27_iLmKPIAgeTSZqXEj-13">
          <mxGeometry relative="1" as="geometry">
            <mxPoint x="600" y="144" as="sourcePoint" />
          </mxGeometry>
        </mxCell>
        <mxCell id="h27_iLmKPIAgeTSZqXEj-17" value="&lt;b&gt;1 week waiting time&lt;/b&gt;" style="text;html=1;align=center;verticalAlign=middle;resizable=0;points=[];autosize=1;strokeColor=none;fillColor=none;" vertex="1" parent="1">
          <mxGeometry x="316" y="358" width="140" height="30" as="geometry" />
        </mxCell>
        <mxCell id="h27_iLmKPIAgeTSZqXEj-18" value="&lt;b&gt;Sender&lt;/b&gt;" style="text;html=1;align=center;verticalAlign=middle;resizable=0;points=[];autosize=1;strokeColor=none;fillColor=none;" vertex="1" parent="1">
          <mxGeometry x="50" y="330" width="60" height="30" as="geometry" />
        </mxCell>
        <mxCell id="h27_iLmKPIAgeTSZqXEj-19" value="&lt;b&gt;Receiver&lt;/b&gt;" style="text;html=1;align=center;verticalAlign=middle;resizable=0;points=[];autosize=1;strokeColor=none;fillColor=none;" vertex="1" parent="1">
          <mxGeometry x="710" y="380" width="70" height="30" as="geometry" />
        </mxCell>
        <mxCell id="h27_iLmKPIAgeTSZqXEj-26" style="edgeStyle=orthogonalEdgeStyle;rounded=0;orthogonalLoop=1;jettySize=auto;html=1;flowAnimation=1;" edge="1" parent="1" source="h27_iLmKPIAgeTSZqXEj-20" target="h27_iLmKPIAgeTSZqXEj-23">
          <mxGeometry relative="1" as="geometry" />
        </mxCell>
        <mxCell id="h27_iLmKPIAgeTSZqXEj-20" value="" style="outlineConnect=0;dashed=0;verticalLabelPosition=bottom;verticalAlign=top;align=center;html=1;shape=mxgraph.aws3.topic;fillColor=#5294CF;gradientColor=none;" vertex="1" parent="1">
          <mxGeometry x="348" y="200" width="70" height="90" as="geometry" />
        </mxCell>
        <mxCell id="h27_iLmKPIAgeTSZqXEj-22" value="" style="html=1;verticalLabelPosition=bottom;align=center;labelBackgroundColor=#ffffff;verticalAlign=top;strokeWidth=2;strokeColor=#F01AA2;shadow=0;dashed=0;shape=mxgraph.ios7.icons.smartphone;" vertex="1" parent="1">
          <mxGeometry x="690" y="180" width="50" height="80" as="geometry" />
        </mxCell>
        <mxCell id="h27_iLmKPIAgeTSZqXEj-23" value="" style="html=1;verticalLabelPosition=bottom;align=center;labelBackgroundColor=#ffffff;verticalAlign=top;strokeWidth=2;strokeColor=#F01AA2;shadow=0;dashed=0;shape=mxgraph.ios7.icons.smartphone;" vertex="1" parent="1">
          <mxGeometry x="720" y="280" width="50" height="80" as="geometry" />
        </mxCell>
        <mxCell id="h27_iLmKPIAgeTSZqXEj-24" value="" style="html=1;verticalLabelPosition=bottom;align=center;labelBackgroundColor=#ffffff;verticalAlign=top;strokeWidth=2;strokeColor=#F01AA2;shadow=0;dashed=0;shape=mxgraph.ios7.icons.smartphone;" vertex="1" parent="1">
          <mxGeometry x="640" y="330" width="50" height="80" as="geometry" />
        </mxCell>
        <mxCell id="h27_iLmKPIAgeTSZqXEj-21" style="edgeStyle=orthogonalEdgeStyle;rounded=0;orthogonalLoop=1;jettySize=auto;html=1;" edge="1" parent="1" source="h27_iLmKPIAgeTSZqXEj-1" target="h27_iLmKPIAgeTSZqXEj-20">
          <mxGeometry relative="1" as="geometry" />
        </mxCell>
        <mxCell id="h27_iLmKPIAgeTSZqXEj-25" style="edgeStyle=orthogonalEdgeStyle;rounded=0;orthogonalLoop=1;jettySize=auto;html=1;entryX=-0.08;entryY=0.385;entryDx=0;entryDy=0;entryPerimeter=0;flowAnimation=1;" edge="1" parent="1" source="h27_iLmKPIAgeTSZqXEj-20" target="h27_iLmKPIAgeTSZqXEj-22">
          <mxGeometry relative="1" as="geometry" />
        </mxCell>
        <mxCell id="h27_iLmKPIAgeTSZqXEj-27" style="edgeStyle=orthogonalEdgeStyle;rounded=0;orthogonalLoop=1;jettySize=auto;html=1;entryX=-0.008;entryY=0.39;entryDx=0;entryDy=0;entryPerimeter=0;flowAnimation=1;" edge="1" parent="1" source="h27_iLmKPIAgeTSZqXEj-20" target="h27_iLmKPIAgeTSZqXEj-24">
          <mxGeometry relative="1" as="geometry" />
        </mxCell>
      </root>
    </mxGraphModel>
  </diagram>
</mxfile>
